<svg width="280" height="72" viewBox="0 0 280 72" fill="none" xmlns="http://www.w3.org/2000/svg">
<g clip-path="url(#clip0_1_13)">
<circle cx="30.0444" cy="17.4" r="9.9" fill="#663399" stroke="#E9F1F8"/>
<circle cx="30.0444" cy="17.4" r="9.9" fill="#663399" stroke="#E9F1F8"/>
<circle cx="8.66663" cy="20.2889" r="7.01111" fill="#663399" stroke="#E9F1F8"/>
<circle cx="30.0444" cy="17.4" r="7.58889" stroke="#E9F1F8"/>
<circle cx="8.66671" cy="20.2889" r="4.7" stroke="#E9F1F8"/>
<rect x="0.5" y="29.4556" width="42.9111" height="27.8889" rx="2.5" fill="#663399" stroke="#E9F1F8"/>
<rect x="45.5667" y="37.5444" width="4.77778" height="12.8667" rx="0.5" fill="#663399" stroke="#E9F1F8"/>
<path d="M58.9333 29.5333L52 37.0445V50.9111L58.9333 57.8444V29.5333Z" fill="#663399" stroke="#E9F1F8" stroke-linejoin="round"/>
<path d="M60.6667 28.9556L60.6667 59" stroke="#E9F1F8" stroke-linecap="round"/>
<rect x="3.96671" y="32.9222" width="18.6444" height="5.93333" stroke="#E9F1F8"/>
<circle cx="19.102" cy="35.6531" r="1.62245" stroke="#E9F1F8"/>
<circle cx="14.8572" cy="35.6531" r="1.62245" stroke="#E9F1F8"/>
<path d="M75.504 22.408H89.456L93.552 36.552L98.16 54.216H98.288L103.088 36.552L107.248 22.408H121.072L122.8 69H112.304L111.92 52.424L111.472 37.64H111.344L102.384 69H93.424L85.104 37.64H84.912L84.4 52.424L83.888 69H73.648L75.504 22.408ZM153.123 69.768C149.624 69.768 146.552 69.1493 143.907 67.912C141.304 66.6747 139.085 64.968 137.251 62.792C135.459 60.5733 134.093 58.0133 133.155 55.112C132.259 52.168 131.811 49.032 131.811 45.704C131.811 42.376 132.259 39.2613 133.155 36.36C134.093 33.416 135.459 30.856 137.251 28.68C139.085 26.4613 141.304 24.7333 143.907 23.496C146.552 22.2587 149.624 21.64 153.123 21.64C156.621 21.64 159.672 22.2587 162.275 23.496C164.92 24.7333 167.139 26.4613 168.931 28.68C170.765 30.856 172.131 33.416 173.027 36.36C173.965 39.2613 174.435 42.376 174.435 45.704C174.435 49.032 173.965 52.168 173.027 55.112C172.131 58.0133 170.765 60.5733 168.931 62.792C167.139 64.968 164.92 66.6747 162.275 67.912C159.672 69.1493 156.621 69.768 153.123 69.768ZM153.123 60.808C154.787 60.808 156.237 60.4667 157.475 59.784C158.755 59.1013 159.8 58.0987 160.611 56.776C161.464 55.4533 162.083 53.8747 162.467 52.04C162.893 50.1627 163.107 48.0507 163.107 45.704C163.107 43.3573 162.893 41.2667 162.467 39.432C162.083 37.5547 161.464 35.9547 160.611 34.632C159.8 33.3093 158.755 32.3067 157.475 31.624C156.237 30.9413 154.787 30.6 153.123 30.6C151.459 30.6 149.987 30.9413 148.707 31.624C147.469 32.3067 146.424 33.3093 145.571 34.632C144.76 35.9547 144.141 37.5547 143.715 39.432C143.331 41.2667 143.139 43.3573 143.139 45.704C143.139 48.0507 143.331 50.1627 143.715 52.04C144.141 53.8747 144.76 55.4533 145.571 56.776C146.424 58.0987 147.469 59.1013 148.707 59.784C149.987 60.4667 151.459 60.808 153.123 60.808ZM178.216 22.408H190.12L196.648 48.968L199.208 59.144H199.336L201.896 48.968L208.424 22.408H220.328L205.992 69H192.552L178.216 22.408ZM227.311 22.408H238.191V69H227.311V22.408ZM248.823 22.408H277.879L277.367 31.368H259.703V40.712H276.279L275.767 49.608H259.703V60.04H278.775L278.199 69H248.823V22.408Z" fill="#E9F1F8"/>
</g>
<defs>
<clipPath id="clip0_1_13">
<rect width="280" height="72" fill="white"/>
</clipPath>
</defs>
</svg>
