<svg width="250" height="117" viewBox="0 0 250 117" fill="none" xmlns="http://www.w3.org/2000/svg">
<circle cx="30.1111" cy="41" r="8" fill="#E9F1F8"/>
<circle cx="13.6667" cy="43.2222" r="5.77778" fill="#E9F1F8"/>
<circle cx="30.1111" cy="41" r="5.72222" stroke="#24272F"/>
<circle cx="30.1111" cy="41" r="5.72222" stroke="#24272F"/>
<circle cx="13.6667" cy="43.2222" r="3.5" stroke="#24272F"/>
<circle cx="13.6667" cy="43.2222" r="3.5" stroke="#24272F"/>
<rect x="7" y="49.8889" width="33.7778" height="22.2222" rx="3" fill="#E9F1F8"/>
<rect x="41.6667" y="56.1111" width="4.44444" height="10.6667" rx="1" fill="#E9F1F8"/>
<path d="M52.3333 50.3333L47 56.1111V66.7778L52.3333 72.1111V50.3333Z" fill="#E9F1F8" stroke="#E9F1F8" stroke-linejoin="round"/>
<path d="M53.6667 49.8889L53.6667 73" stroke="#E9F1F8" stroke-linecap="round"/>
<rect x="10.1667" y="53.0556" width="14.1111" height="4.33333" stroke="#24272F"/>
<path d="M247 7H75L57 59.7227L75 111H247V7Z" fill="#663399"/>
<path d="M83.664 82V34.384L88.496 34.448C89.5627 34.448 90.6507 34.416 91.76 34.352C92.8693 34.2667 94.064 34.192 95.344 34.128C96.624 34.0427 98.064 34 99.664 34C103.739 34 107.045 34.4907 109.584 35.472C112.144 36.432 114.011 37.7973 115.184 39.568C116.357 41.3387 116.944 43.4293 116.944 45.84C116.944 47.44 116.677 48.9867 116.144 50.48C115.632 51.952 114.843 53.232 113.776 54.32C112.709 55.408 111.365 56.176 109.744 56.624C111.621 56.816 113.307 57.4133 114.8 58.416C116.293 59.3973 117.477 60.688 118.352 62.288C119.227 63.8667 119.664 65.648 119.664 67.632C119.664 70.5333 119.077 73.0933 117.904 75.312C116.752 77.5307 114.757 79.28 111.92 80.56C109.104 81.8187 105.179 82.448 100.144 82.448C98.096 82.448 95.984 82.384 93.808 82.256C91.6533 82.1493 89.9467 82.064 88.688 82H83.664ZM93.616 54.192C94 54.256 94.4587 54.3093 94.992 54.352C95.5253 54.3733 96.08 54.3947 96.656 54.416C97.2533 54.416 97.808 54.416 98.32 54.416C98.8533 54.416 99.3227 54.416 99.728 54.416C102.117 54.416 103.973 53.8293 105.296 52.656C106.64 51.4827 107.312 49.5627 107.312 46.896C107.312 44.72 106.544 43.1627 105.008 42.224C103.493 41.2853 101.296 40.816 98.416 40.816C98.096 40.816 97.5947 40.8373 96.912 40.88C96.2293 40.9013 95.568 40.944 94.928 41.008C94.288 41.0507 93.8507 41.1253 93.616 41.232V54.192ZM93.616 74.96C93.9147 75.152 94.448 75.3013 95.216 75.408C96.0053 75.5147 96.848 75.5893 97.744 75.632C98.64 75.6747 99.44 75.696 100.144 75.696C103.173 75.696 105.488 75.12 107.088 73.968C108.688 72.7947 109.488 70.8107 109.488 68.016C109.488 65.6053 108.731 63.8133 107.216 62.64C105.723 61.4667 103.323 60.88 100.016 60.88C99.5467 60.88 99.0027 60.88 98.384 60.88C97.7867 60.88 97.168 60.8907 96.528 60.912C95.9093 60.9333 95.344 60.9547 94.832 60.976C94.32 60.9973 93.9147 61.04 93.616 61.104V74.96ZM127.594 82V34.448H156.618V42H137.578V53.936H152.01V61.328H137.578V74.288H158.634V82H127.594ZM179.176 82.512C176.979 82.512 174.899 82.352 172.936 82.032C170.973 81.712 169.277 81.328 167.848 80.88C166.419 80.432 165.405 80.0267 164.808 79.664L166.312 71.728C167.101 72.1973 168.136 72.6667 169.416 73.136C170.717 73.584 172.147 73.968 173.704 74.288C175.261 74.5867 176.829 74.736 178.408 74.736C180.947 74.736 182.835 74.3413 184.072 73.552C185.309 72.7627 185.928 71.4933 185.928 69.744C185.928 68.5067 185.587 67.472 184.904 66.64C184.221 65.7867 183.144 64.9547 181.672 64.144C180.221 63.3333 178.333 62.3733 176.008 61.264C174.024 60.304 172.157 59.1627 170.408 57.84C168.659 56.5173 167.24 54.9387 166.152 53.104C165.064 51.2693 164.52 49.1253 164.52 46.672C164.52 44.4533 164.947 42.544 165.8 40.944C166.675 39.3227 167.869 38 169.384 36.976C170.899 35.9307 172.648 35.1627 174.632 34.672C176.637 34.1813 178.781 33.936 181.064 33.936C184.349 33.936 187.048 34.2453 189.16 34.864C191.272 35.4827 192.744 36.0587 193.576 36.592L191.88 44.208C190.877 43.4827 189.491 42.832 187.72 42.256C185.949 41.6587 183.923 41.36 181.64 41.36C180.125 41.36 178.803 41.5413 177.672 41.904C176.563 42.2667 175.699 42.8 175.08 43.504C174.461 44.1867 174.152 45.0293 174.152 46.032C174.152 47.2267 174.44 48.2507 175.016 49.104C175.613 49.936 176.552 50.7467 177.832 51.536C179.112 52.304 180.776 53.1893 182.824 54.192C184.68 55.0667 186.397 55.984 187.976 56.944C189.555 57.8827 190.941 58.9173 192.136 60.048C193.331 61.1787 194.259 62.4693 194.92 63.92C195.581 65.3707 195.912 67.0347 195.912 68.912C195.912 71.7707 195.24 74.224 193.896 76.272C192.552 78.2987 190.621 79.8453 188.104 80.912C185.608 81.9787 182.632 82.512 179.176 82.512ZM213.254 82V42.128H199.718V34.448H236.87V42.128H223.334V82H213.254Z" fill="#E9F1F8"/>
<rect x="78" y="11" width="11.7857" height="11" rx="2" fill="#75557D"/>
<rect x="91.9286" y="11" width="11.7857" height="11" rx="2" fill="#75557D"/>
<rect x="105.857" y="11" width="11.7857" height="11" rx="2" fill="#75557D"/>
<rect x="119.786" y="11" width="11.7857" height="11" rx="2" fill="#75557D"/>
<rect x="133.714" y="11" width="11.7857" height="11" rx="2" fill="#75557D"/>
<rect x="147.643" y="11" width="11.7857" height="11" rx="2" fill="#75557D"/>
<rect x="161.571" y="11" width="11.7857" height="11" rx="2" fill="#75557D"/>
<rect x="175.5" y="11" width="11.7857" height="11" rx="2" fill="#75557D"/>
<rect x="189.429" y="11" width="11.7857" height="11" rx="2" fill="#75557D"/>
<rect x="203.357" y="11" width="11.7857" height="11" rx="2" fill="#75557D"/>
<rect x="217.286" y="11" width="11.7857" height="11" rx="2" fill="#75557D"/>
<rect x="231.214" y="11" width="11.7857" height="11" rx="2" fill="#75557D"/>
<rect x="78" y="96" width="11.7857" height="11" rx="2" fill="#75557D"/>
<rect x="91.9286" y="96" width="11.7857" height="11" rx="2" fill="#75557D"/>
<rect x="105.857" y="96" width="11.7857" height="11" rx="2" fill="#75557D"/>
<rect x="119.786" y="96" width="11.7857" height="11" rx="2" fill="#75557D"/>
<rect x="133.714" y="96" width="11.7857" height="11" rx="2" fill="#75557D"/>
<rect x="147.643" y="96" width="11.7857" height="11" rx="2" fill="#75557D"/>
<rect x="161.571" y="96" width="11.7857" height="11" rx="2" fill="#75557D"/>
<rect x="175.5" y="96" width="11.7857" height="11" rx="2" fill="#75557D"/>
<rect x="189.429" y="96" width="11.7857" height="11" rx="2" fill="#75557D"/>
<rect x="203.357" y="96" width="11.7857" height="11" rx="2" fill="#75557D"/>
<rect x="217.286" y="96" width="11.7857" height="11" rx="2" fill="#75557D"/>
<rect x="231.214" y="96" width="11.7857" height="11" rx="2" fill="#75557D"/>
</svg>
