<svg width="280" height="60" viewBox="0 0 280 60" fill="none" xmlns="http://www.w3.org/2000/svg">
<circle cx="30.0444" cy="12.4" r="9.9" fill="#663399" stroke="#E9F1F8"/>
<circle cx="30.0444" cy="12.4" r="9.9" fill="#663399" stroke="#E9F1F8"/>
<circle cx="8.66663" cy="15.2889" r="7.01111" fill="#663399" stroke="#E9F1F8"/>
<circle cx="30.0444" cy="12.4" r="7.58889" stroke="#E9F1F8"/>
<circle cx="8.6667" cy="15.2889" r="4.7" stroke="#E9F1F8"/>
<rect x="0.5" y="24.4556" width="42.9111" height="27.8889" rx="2.5" fill="#663399" stroke="#E9F1F8"/>
<rect x="45.5667" y="32.5444" width="4.77778" height="12.8667" rx="0.5" fill="#663399" stroke="#E9F1F8"/>
<path d="M58.9333 24.5333L52 32.0444V45.9111L58.9333 52.8444V24.5333Z" fill="#663399" stroke="#E9F1F8" stroke-linejoin="round"/>
<path d="M60.6667 23.9556L60.6667 54" stroke="#E9F1F8" stroke-linecap="round"/>
<rect x="3.96671" y="27.9222" width="18.6444" height="5.93333" stroke="#E9F1F8"/>
<circle cx="19.102" cy="30.6531" r="1.62245" stroke="#E9F1F8"/>
<circle cx="14.8572" cy="30.6531" r="1.62245" stroke="#E9F1F8"/>
<path d="M237.742 7H268.785L268.238 15.8462H249.366V25.0714H267.076L266.529 33.8544H249.366V44.1538H269.742L269.127 53H237.742V7Z" fill="#E9F1F8"/>
<path d="M219.742 7.136H230.452V53H219.742V7.136Z" fill="#E9F1F8"/>
<path d="M170.742 7.136H182.46L188.886 33.281L191.406 43.298H191.532L194.052 33.281L200.478 7.136H212.196L198.084 53H184.854L170.742 7.136Z" fill="#E9F1F8"/>
<path d="M148.742 53C145.295 53 142.268 52.4087 139.661 51.2261C137.097 50.0434 134.91 48.4122 133.103 46.3325C131.337 44.2119 129.992 41.7651 129.067 38.992C128.184 36.1782 127.742 33.1809 127.742 30C127.742 26.8191 128.184 23.8422 129.067 21.0691C129.992 18.2553 131.337 15.8085 133.103 13.7287C134.91 11.6082 137.097 9.95656 139.661 8.77394C142.268 7.59131 145.295 7 148.742 7C152.19 7 155.196 7.59131 157.76 8.77394C160.367 9.95656 162.553 11.6082 164.319 13.7287C166.127 15.8085 167.472 18.2553 168.355 21.0691C169.28 23.8422 169.742 26.8191 169.742 30C169.742 33.1809 169.28 36.1782 168.355 38.992C167.472 41.7651 166.127 44.2119 164.319 46.3325C162.553 48.4122 160.367 50.0434 157.76 51.2261C155.196 52.4087 152.19 53 148.742 53ZM148.742 44.4362C150.382 44.4362 151.811 44.1099 153.031 43.4574C154.292 42.805 155.322 41.8466 156.121 40.5824C156.962 39.3183 157.571 37.8094 157.95 36.0559C158.37 34.2615 158.58 32.2429 158.58 30C158.58 27.7571 158.37 25.7589 157.95 24.0053C157.571 22.211 156.962 20.6817 156.121 19.4176C155.322 18.1534 154.292 17.195 153.031 16.5426C151.811 15.8901 150.382 15.5638 148.742 15.5638C147.103 15.5638 145.652 15.8901 144.391 16.5426C143.172 17.195 142.142 18.1534 141.301 19.4176C140.502 20.6817 139.892 22.211 139.472 24.0053C139.094 25.7589 138.904 27.7571 138.904 30C138.904 32.2429 139.094 34.2615 139.472 36.0559C139.892 37.8094 140.502 39.3183 141.301 40.5824C142.142 41.8466 143.172 42.805 144.391 43.4574C145.652 44.1099 147.103 44.4362 148.742 44.4362Z" fill="#E9F1F8"/>
<path d="M76.827 7.136H90.561L94.593 21.059L99.129 38.447H99.255L103.98 21.059L108.075 7.136H121.683L123.384 53H113.052L112.674 36.683L112.233 22.13H112.107L103.287 53H94.467L86.277 22.13H86.088L85.584 36.683L85.08 53H75L76.827 7.136Z" fill="#E9F1F8"/>
</svg>
