<svg width="134" height="48" viewBox="0 0 134 48" fill="none" xmlns="http://www.w3.org/2000/svg">
<path d="M13.176 1.304C16.76 1.304 19.768 1.66666 22.2 2.392C24.632 3.11733 26.4667 4.312 27.704 5.976C28.9413 7.64 29.56 9.85866 29.56 12.632C29.56 14.424 29.24 16.024 28.6 17.432C28.0027 18.7973 27.1067 19.9493 25.912 20.888C24.7173 21.784 23.2453 22.4027 21.496 22.744V23.064C23.288 23.3627 24.888 23.9173 26.296 24.728C27.7467 25.5387 28.8773 26.6907 29.688 28.184C30.5413 29.6773 30.968 31.6187 30.968 34.008C30.968 36.7813 30.3493 39.1493 29.112 41.112C27.9173 43.032 26.2107 44.504 23.992 45.528C21.7733 46.5093 19.1067 47 15.992 47H0.824V1.304H13.176ZM14.264 20.76C17.848 20.76 20.3013 20.1413 21.624 18.904C22.9893 17.624 23.672 15.7467 23.672 13.272C23.672 10.7547 22.84 8.96267 21.176 7.896C19.5547 6.78667 16.9733 6.232 13.432 6.232H6.52V20.76H14.264ZM6.52 25.56V42.136H14.968C18.68 42.136 21.2613 41.3467 22.712 39.768C24.2053 38.1893 24.952 36.12 24.952 33.56C24.952 31.9387 24.6107 30.5307 23.928 29.336C23.288 28.1413 22.2213 27.224 20.728 26.584C19.2347 25.9013 17.1867 25.56 14.584 25.56H6.52ZM64.138 47H40.074V1.304H64.138V6.36H45.77V20.632H63.05V25.624H45.77V41.944H64.138V47ZM98.022 34.776C98.022 37.5067 97.382 39.832 96.102 41.752C94.8647 43.6293 93.094 45.08 90.79 46.104C88.5287 47.128 85.8193 47.64 82.662 47.64C81.0833 47.64 79.5473 47.5547 78.054 47.384C76.6033 47.2133 75.2593 46.9787 74.022 46.68C72.8273 46.3387 71.7607 45.9333 70.822 45.464V39.96C72.3153 40.6427 74.1287 41.2613 76.262 41.816C78.438 42.3707 80.6567 42.648 82.918 42.648C85.0087 42.648 86.7367 42.3493 88.102 41.752C89.51 41.1547 90.5553 40.3013 91.238 39.192C91.9633 38.0827 92.326 36.7813 92.326 35.288C92.326 33.7947 92.006 32.536 91.366 31.512C90.7687 30.488 89.7447 29.5493 88.294 28.696C86.8433 27.8 84.8593 26.8613 82.342 25.88C80.55 25.1547 78.9713 24.3867 77.606 23.576C76.2407 22.7227 75.0887 21.7627 74.15 20.696C73.2113 19.6293 72.5073 18.4133 72.038 17.048C71.5687 15.6827 71.334 14.104 71.334 12.312C71.334 9.88 71.91 7.81066 73.062 6.104C74.2567 4.35467 75.878 3.01067 77.926 2.072C80.0167 1.13333 82.4273 0.663998 85.158 0.663998C87.5047 0.663998 89.6593 0.898664 91.622 1.368C93.5847 1.83733 95.398 2.456 97.062 3.224L95.27 8.152C93.734 7.46933 92.0913 6.89333 90.342 6.424C88.6353 5.95466 86.8647 5.72 85.03 5.72C83.2807 5.72 81.8087 5.99733 80.614 6.552C79.462 7.10667 78.5873 7.896 77.99 8.92C77.3927 9.90133 77.094 11.0533 77.094 12.376C77.094 13.912 77.3927 15.192 77.99 16.216C78.5873 17.24 79.5687 18.1573 80.934 18.968C82.2993 19.7787 84.1127 20.6533 86.374 21.592C88.8913 22.5733 91.0033 23.64 92.71 24.792C94.4593 25.9013 95.782 27.2453 96.678 28.824C97.574 30.4027 98.022 32.3867 98.022 34.776ZM120.461 47H114.765V6.36H101.453V1.304H133.645V6.36H120.461V47Z" fill="#E7EEF0"/>
</svg>
