<svg width="147" height="49" viewBox="0 0 147 49" fill="none" xmlns="http://www.w3.org/2000/svg">
<path d="M0.464 48V1.088H14.352C17.552 1.088 20.3467 1.472 22.736 2.24C25.168 3.008 27.0667 4.224 28.432 5.888C29.7973 7.552 30.48 9.77067 30.48 12.544C30.48 14.08 30.2027 15.552 29.648 16.96C29.136 18.3253 28.368 19.52 27.344 20.544C26.32 21.5253 25.0827 22.2507 23.632 22.72V23.04C26.4053 23.552 28.688 24.7467 30.48 26.624C32.272 28.5013 33.168 31.04 33.168 34.24C33.168 37.312 32.4 39.872 30.864 41.92C29.3707 43.9253 27.28 45.44 24.592 46.464C21.9467 47.488 18.8747 48 15.376 48H0.464ZM6.352 20.992H13.328C17.3813 20.992 20.2827 20.3093 22.032 18.944C23.7813 17.5787 24.656 15.7013 24.656 13.312C24.656 10.5387 23.7173 8.59733 21.84 7.488C20.0053 6.336 17.2533 5.76 13.584 5.76H6.352V20.992ZM6.352 43.264H14.544C18.5547 43.264 21.6907 42.5173 23.952 41.024C26.2133 39.5307 27.344 37.2053 27.344 34.048C27.344 31.104 26.2347 28.9707 24.016 27.648C21.7973 26.2827 18.64 25.6 14.544 25.6H6.352V43.264ZM42.5265 48V1.088H69.5345V6.08H48.4145V20.8H66.2065V25.856H48.4145V42.944H70.2385V48H42.5265ZM93.206 48.832C89.878 48.832 86.806 48.2133 83.99 46.976C81.2167 45.7387 78.8273 44.0533 76.822 41.92L80.342 37.824C82.006 39.5733 83.9687 40.9813 86.23 42.048C88.4913 43.1147 90.838 43.648 93.27 43.648C96.3847 43.648 98.7953 42.944 100.502 41.536C102.251 40.128 103.126 38.2933 103.126 36.032C103.126 34.368 102.763 33.0453 102.038 32.064C101.355 31.0827 100.417 30.272 99.222 29.632C98.07 28.9493 96.7473 28.288 95.254 27.648L88.534 24.704C87.0833 24.064 85.6113 23.2533 84.118 22.272C82.6673 21.2907 81.4513 20.0107 80.47 18.432C79.4887 16.8533 78.998 14.9333 78.998 12.672C78.998 10.24 79.638 8.10667 80.918 6.272C82.198 4.39466 83.9473 2.92266 86.166 1.856C88.3847 0.789331 90.9233 0.255997 93.782 0.255997C96.598 0.255997 99.1793 0.789331 101.526 1.856C103.915 2.92266 105.921 4.30933 107.542 6.016L104.47 9.792C103.019 8.46933 101.419 7.424 99.67 6.656C97.9633 5.84533 96.0007 5.44 93.782 5.44C91.1367 5.44 89.0033 6.05866 87.382 7.296C85.8033 8.49066 85.014 10.1333 85.014 12.224C85.014 13.76 85.398 15.0187 86.166 16C86.9767 16.9813 87.9793 17.7707 89.174 18.368C90.3687 18.9653 91.5847 19.5413 92.822 20.096L99.478 22.976C101.27 23.744 102.891 24.6613 104.342 25.728C105.835 26.7947 107.009 28.1173 107.862 29.696C108.715 31.2747 109.142 33.216 109.142 35.52C109.142 37.9947 108.502 40.256 107.222 42.304C105.942 44.3093 104.107 45.9093 101.718 47.104C99.3287 48.256 96.4913 48.832 93.206 48.832ZM126.442 48V6.08H112.234V1.088H146.602V6.08H132.394V48H126.442Z" fill="#F1F8E9"/>
</svg>
