<svg width="146" height="47" viewBox="0 0 146 47" fill="none" xmlns="http://www.w3.org/2000/svg">
<g clip-path="url(#clip0_35_19)">
<path d="M16.688 46.512C14.0853 46.512 11.6107 46.448 9.264 46.32C6.96 46.192 5.12533 46.0427 3.76 45.872V1.328C5.25333 1.15733 7.10933 1.008 9.328 0.879997C11.5467 0.751999 14.0853 0.688 16.944 0.688C22.4053 0.688 26.608 1.73333 29.552 3.824C32.496 5.872 33.968 8.66667 33.968 12.208C33.968 14.5547 33.328 16.56 32.048 18.224C30.8107 19.8453 28.9973 21.1893 26.608 22.256C29.5093 23.28 31.7067 24.7093 33.2 26.544C34.6933 28.336 35.44 30.5547 35.44 33.2C35.44 37.2533 33.84 40.496 30.64 42.928C27.44 45.3173 22.7893 46.512 16.688 46.512ZM9.84 20.528H16.88C20.2507 20.528 22.9173 19.824 24.88 18.416C26.8853 17.008 27.888 15.1947 27.888 12.976C27.888 10.5867 26.9067 8.77333 24.944 7.536C22.9813 6.256 20.2933 5.616 16.88 5.616C15.472 5.616 14.192 5.65866 13.04 5.744C11.888 5.78667 10.8213 5.85066 9.84 5.936V20.528ZM17.136 41.456C20.9333 41.456 23.8987 40.7733 26.032 39.408C28.1653 38.0427 29.232 36.0587 29.232 33.456C29.232 30.896 28.1867 28.8907 26.096 27.44C24.0053 25.9893 21.0187 25.264 17.136 25.264H9.84V41.072C12.1013 41.328 14.5333 41.456 17.136 41.456ZM44.0725 46V1.2H70.9525V6.448H50.1525V20.08H68.0725V25.2H50.1525V40.752H70.9525V46H44.0725ZM90.7085 46.768C87.5938 46.768 84.7565 46.3627 82.1965 45.552C79.6365 44.6987 77.4818 43.5893 75.7325 42.224L78.8045 37.104C80.3405 38.384 82.0685 39.4293 83.9885 40.24C85.9085 41.0507 88.1485 41.456 90.7085 41.456C93.7805 41.456 96.2125 40.816 98.0045 39.536C99.7965 38.256 100.693 36.528 100.693 34.352C100.693 33.1147 100.437 32.0267 99.9245 31.088C99.4125 30.1067 98.4098 29.168 96.9165 28.272C95.4658 27.3333 93.3112 26.3307 90.4525 25.264C87.3805 24.0693 84.9272 22.8747 83.0925 21.68C81.2578 20.4427 79.9352 19.056 79.1245 17.52C78.3565 15.9413 77.9725 14.0853 77.9725 11.952C77.9725 9.81867 78.5485 7.89867 79.7005 6.192C80.8952 4.44266 82.6232 3.056 84.8845 2.032C87.1885 0.965332 89.9618 0.431999 93.2045 0.431999C95.8498 0.431999 98.2178 0.709332 100.309 1.264C102.442 1.776 104.511 2.52266 106.517 3.504L104.277 8.688C102.826 7.83466 101.119 7.13066 99.1565 6.576C97.2365 5.97866 95.2098 5.68 93.0765 5.68C90.2605 5.68 88.0418 6.23466 86.4205 7.344C84.7992 8.45333 83.9885 9.88267 83.9885 11.632C83.9885 12.7413 84.2232 13.7227 84.6925 14.576C85.1618 15.4293 86.0792 16.2613 87.4445 17.072C88.8525 17.8827 90.9432 18.8 93.7165 19.824C97.0445 21.0613 99.6685 22.3627 101.589 23.728C103.551 25.0933 104.938 26.5867 105.749 28.208C106.559 29.7867 106.965 31.6 106.965 33.648C106.965 36.4213 106.261 38.7893 104.853 40.752C103.487 42.7147 101.567 44.208 99.0925 45.232C96.6605 46.256 93.8658 46.768 90.7085 46.768ZM124.588 46V6.576H110.828V1.2H144.428V6.576H130.668V46H124.588Z" fill="white"/>
</g>
<defs>
<clipPath id="clip0_35_19">
<rect width="146" height="47" fill="white"/>
</clipPath>
</defs>
</svg>
