<svg width="280" height="61" viewBox="0 0 280 61" fill="none" xmlns="http://www.w3.org/2000/svg">
<g clip-path="url(#clip0_35_19)">
<path d="M83.688 53.512C81.0853 53.512 78.6107 53.448 76.264 53.32C73.96 53.192 72.1253 53.0427 70.76 52.872V8.328C72.2533 8.15733 74.1093 8.008 76.328 7.88C78.5467 7.752 81.0853 7.688 83.944 7.688C89.4053 7.688 93.608 8.73333 96.552 10.824C99.496 12.872 100.968 15.6667 100.968 19.208C100.968 21.5547 100.328 23.56 99.048 25.224C97.8107 26.8453 95.9973 28.1893 93.608 29.256C96.5093 30.28 98.7067 31.7093 100.2 33.544C101.693 35.336 102.44 37.5547 102.44 40.2C102.44 44.2533 100.84 47.496 97.64 49.928C94.44 52.3173 89.7893 53.512 83.688 53.512ZM76.84 27.528H83.88C87.2507 27.528 89.9173 26.824 91.88 25.416C93.8853 24.008 94.888 22.1947 94.888 19.976C94.888 17.5867 93.9067 15.7733 91.944 14.536C89.9813 13.256 87.2933 12.616 83.88 12.616C82.472 12.616 81.192 12.6587 80.04 12.744C78.888 12.7867 77.8213 12.8507 76.84 12.936V27.528ZM84.136 48.456C87.9333 48.456 90.8987 47.7733 93.032 46.408C95.1653 45.0427 96.232 43.0587 96.232 40.456C96.232 37.896 95.1867 35.8907 93.096 34.44C91.0053 32.9893 88.0187 32.264 84.136 32.264H76.84V48.072C79.1013 48.328 81.5333 48.456 84.136 48.456ZM111.073 53V8.2H137.953V13.448H117.153V27.08H135.073V32.2H117.153V47.752H137.953V53H111.073ZM157.708 53.768C154.594 53.768 151.757 53.3627 149.197 52.552C146.637 51.6987 144.482 50.5893 142.733 49.224L145.805 44.104C147.341 45.384 149.069 46.4293 150.989 47.24C152.909 48.0507 155.149 48.456 157.708 48.456C160.781 48.456 163.213 47.816 165.005 46.536C166.797 45.256 167.693 43.528 167.693 41.352C167.693 40.1147 167.437 39.0267 166.925 38.088C166.413 37.1067 165.41 36.168 163.917 35.272C162.466 34.3333 160.311 33.3307 157.453 32.264C154.381 31.0693 151.927 29.8747 150.093 28.68C148.258 27.4427 146.935 26.056 146.125 24.52C145.357 22.9413 144.973 21.0853 144.973 18.952C144.973 16.8187 145.549 14.8987 146.701 13.192C147.895 11.4427 149.623 10.056 151.885 9.032C154.189 7.96533 156.962 7.432 160.205 7.432C162.85 7.432 165.218 7.70933 167.309 8.264C169.442 8.776 171.511 9.52266 173.517 10.504L171.277 15.688C169.826 14.8347 168.119 14.1307 166.157 13.576C164.237 12.9787 162.21 12.68 160.077 12.68C157.261 12.68 155.042 13.2347 153.421 14.344C151.799 15.4533 150.989 16.8827 150.989 18.632C150.989 19.7413 151.223 20.7227 151.693 21.576C152.162 22.4293 153.079 23.2613 154.445 24.072C155.853 24.8827 157.943 25.8 160.717 26.824C164.045 28.0613 166.669 29.3627 168.589 30.728C170.551 32.0933 171.938 33.5867 172.749 35.208C173.559 36.7867 173.965 38.6 173.965 40.648C173.965 43.4213 173.261 45.7893 171.853 47.752C170.487 49.7147 168.567 51.208 166.093 52.232C163.661 53.256 160.866 53.768 157.708 53.768ZM191.588 53V13.576H177.828V8.2H211.428V13.576H197.668V53H191.588Z" fill="white"/>
</g>
<defs>
<clipPath id="clip0_35_19">
<rect width="280" height="61" fill="white"/>
</clipPath>
</defs>
</svg>
