<svg width="250" height="72" viewBox="0 0 250 72" fill="none" xmlns="http://www.w3.org/2000/svg">
<g clip-path="url(#clip0_21_23)">
<circle cx="36" cy="35.0302" r="31" fill="#009688"/>
<circle cx="36" cy="35.0302" r="13" fill="#F1F8E9"/>
<circle cx="36" cy="35.0302" r="4" fill="#424242"/>
<path fill-rule="evenodd" clip-rule="evenodd" d="M20.4417 55.7209C16.0334 52.4108 13.0058 47.944 11.4641 43.0595L10.4375 43.1256C12.0161 48.2941 15.1888 53.0271 19.8412 56.5206C24.4662 59.9936 29.8598 61.7206 35.232 61.814L35.009 60.8087C29.9199 60.6721 24.8225 59.0105 20.4417 55.7209ZM60.305 28.8894L61.3211 28.824C59.8837 23.1972 56.591 18.004 51.5857 14.2455C46.9333 10.752 41.5033 9.02515 36.0995 8.95063L36.3224 9.95497C41.4431 10.0733 46.577 11.735 50.9852 15.0452C55.747 18.6208 58.8977 23.5459 60.305 28.8894Z" fill="#F1F8E9"/>
<path fill-rule="evenodd" clip-rule="evenodd" d="M22.6758 52.6685C18.9048 49.8368 16.3118 46.0183 14.9864 41.8416L13.9596 41.9077C15.322 46.3684 18.0601 50.4531 22.0754 53.4682C26.067 56.4655 30.7218 57.956 35.3583 58.0366L35.1352 57.0312C30.782 56.9074 26.4232 55.4825 22.6758 52.6685ZM56.858 29.6303L57.8743 29.5648C56.6337 24.7087 53.792 20.2268 49.4722 16.983C45.457 13.968 40.7706 12.4776 36.107 12.4133L36.3298 13.4178C40.7105 13.5258 45.1007 14.951 48.8717 17.7827C52.948 20.8435 55.6477 25.0574 56.858 29.6303Z" fill="#F1F8E9"/>
<path fill-rule="evenodd" clip-rule="evenodd" d="M24.9764 49.8566C21.8204 47.4867 19.6469 44.2938 18.5303 40.8003L17.5032 40.8665C18.657 44.6439 20.9757 48.103 24.376 50.6563C27.7562 53.1945 31.6981 54.4567 35.6244 54.525L35.4013 53.5193C31.7583 53.408 28.1124 52.2115 24.9764 49.8566ZM53.6753 30.4795L54.6917 30.4141C53.6412 26.3018 51.2347 22.5063 47.5766 19.7594C44.1763 17.2061 40.2078 15.9441 36.2584 15.8896L36.4813 16.8944C40.1476 16.9924 43.82 18.1891 46.9761 20.559C50.3907 23.1231 52.6551 26.6505 53.6753 30.4795Z" fill="#F1F8E9"/>
<path fill-rule="evenodd" clip-rule="evenodd" d="M27.3702 47.3818C24.798 45.4504 23.0228 42.8514 22.1046 40.0066L21.0771 40.0728C22.0328 43.2016 23.9534 46.0667 26.7697 48.1815C29.5695 50.2838 32.8344 51.3293 36.0865 51.3858L35.8633 50.3798C32.8946 50.2805 29.9257 49.3008 27.3702 47.3818ZM50.863 31.4807L51.8796 31.4153C51.0094 28.0091 49.0162 24.8654 45.9863 22.5902C43.1699 20.4754 39.8828 19.4301 36.6117 19.3849L36.8347 20.3901C39.8227 20.4785 42.8136 21.4584 45.3858 23.3899C48.1722 25.4822 50.0233 28.3578 50.863 31.4807Z" fill="#F1F8E9"/>
<rect x="66.1378" y="25.0302" width="2" height="20" transform="rotate(37.8749 66.1378 25.0302)" fill="#F1F8E9"/>
<rect x="52.4557" y="40.9926" width="4" height="4" transform="rotate(37.8749 52.4557 40.9926)" fill="#F1F8E9"/>
<path d="M55.964 46.255L53.7166 46.7013L55.8433 43.9669L55.964 46.255Z" fill="#F1F8E9"/>
<path d="M110.369 43.3774C110.369 42.6284 110.138 42.1291 109.677 41.8794C109.236 41.6297 108.583 41.5049 107.718 41.5049H94.3511V39.4307H107.718C110.868 39.4307 112.443 40.7463 112.443 43.3774C112.443 44.8563 112.011 45.9222 111.146 46.5752C110.282 47.2282 109.139 47.5547 107.718 47.5547H94.3511V45.4805H107.718C109.485 45.4805 110.369 44.7795 110.369 43.3774ZM93.1987 60H91.1245V24.7383H107.718C109.024 24.7383 110.138 25.1416 111.06 25.9482C111.982 26.7357 112.443 27.7248 112.443 28.9155C112.443 30.4904 112.011 31.6331 111.146 32.3438C110.282 33.0352 109.139 33.3809 107.718 33.3809H94.3511V31.3066H107.718C109.485 31.3066 110.369 30.5096 110.369 28.9155C110.369 28.2625 110.119 27.7536 109.62 27.3887C109.12 27.0046 108.486 26.8125 107.718 26.8125H93.1987V60ZM94.3511 35.4551H107.718C109.62 35.4551 111.223 34.8885 112.529 33.7554C113.854 32.603 114.517 30.9897 114.517 28.9155C114.517 27.2446 113.826 25.785 112.443 24.5366C111.079 23.2882 109.504 22.6641 107.718 22.6641H89.0503V60H86.9761V20.5898H107.718C110.081 20.5898 112.145 21.4253 113.912 23.0962C115.698 24.7479 116.591 26.6877 116.591 28.9155C116.591 30.6632 116.178 32.1901 115.353 33.4961C114.546 34.8021 113.451 35.8104 112.068 36.521C115.084 37.5965 116.591 39.786 116.591 43.0894C116.591 45.7013 115.727 47.7948 113.999 49.3696C112.27 50.9253 110.177 51.7031 107.718 51.7031H94.3511V49.6289H107.718C109.62 49.6289 111.223 49.0623 112.529 47.9292C113.854 46.7769 114.517 45.1636 114.517 43.0894C114.517 41.6873 114.018 40.4486 113.019 39.373C112.02 38.2975 110.551 37.6733 108.611 37.5005C108.419 37.5197 108.122 37.5293 107.718 37.5293H94.3511V35.4551ZM120.74 28.9155C120.74 31.6043 119.789 34.0339 117.888 36.2041C119.789 38.3167 120.74 40.6118 120.74 43.0894C120.74 45.4901 120.135 47.6795 118.925 49.6577C117.734 51.6167 116.14 53.1436 114.143 54.2383C112.164 55.3138 110.023 55.8516 107.718 55.8516H94.3511V53.7773H107.718C110.714 53.7773 113.288 52.7786 115.439 50.7812C117.59 48.7646 118.666 46.2007 118.666 43.0894C118.666 41.9754 118.377 40.7463 117.801 39.4019C117.244 38.0382 116.466 37.0011 115.468 36.2905C117.6 34.2931 118.666 31.8348 118.666 28.9155C118.666 26.1115 117.571 23.682 115.381 21.627C113.192 19.5527 110.638 18.5156 107.718 18.5156H84.9019V60H82.8276V16.4414H107.718C110.004 16.4414 112.145 17.008 114.143 18.1411C116.159 19.255 117.763 20.7819 118.954 22.7217C120.144 24.6423 120.74 26.7069 120.74 28.9155ZM120.25 36.3193C121.959 34.0339 122.814 31.5659 122.814 28.9155C122.814 26.3228 122.123 23.9124 120.74 21.6846C119.376 19.4375 117.532 17.661 115.208 16.355C112.885 15.0298 110.388 14.3672 107.718 14.3672H80.7534V60H78.6792V12.293H107.718C110.753 12.293 113.586 13.042 116.217 14.54C118.867 16.0381 120.97 18.0739 122.526 20.6475C124.101 23.2018 124.888 25.9578 124.888 28.9155C124.888 31.7388 124.091 34.2163 122.497 36.3481C124.091 38.5568 124.888 40.8039 124.888 43.0894C124.888 45.6629 124.427 48.0252 123.505 50.1763C122.583 52.3081 121.335 54.0846 119.76 55.5059C118.205 56.9271 116.39 58.0314 114.315 58.8188C112.241 59.6063 110.042 60 107.718 60H94.3511V57.9258H107.718C109.735 57.9258 111.665 57.5513 113.509 56.8022C115.353 56.034 116.956 54.9969 118.32 53.6909C119.683 52.3849 120.769 50.8101 121.575 48.9663C122.401 47.1226 122.814 45.1636 122.814 43.0894C122.814 42.1675 122.593 41.0632 122.151 39.7764C121.729 38.4704 121.095 37.318 120.25 36.3193ZM139.926 60H137.852V12.293H139.926V60ZM135.778 60H133.704V12.293H135.778V60ZM131.629 60H129.555V12.293H131.629V60ZM144.075 49.6289H166.142V51.7031H144.075V53.7773H166.142V55.8516H144.075V57.9258H166.142V60H142V12.293H166.142V14.3672H144.075V16.4414H166.142V18.5156H144.075V20.5898H166.142V22.6641H144.075V30.9609H155.396V33.0352H144.075V35.1094H155.396V37.1836H144.075V39.2578H155.396V41.332H144.075V49.6289ZM190.543 30.9609H187.057C185.578 30.9609 184.512 30.5864 183.859 29.8374C183.206 29.0692 182.88 28.0609 182.88 26.8125C182.88 24.0469 184.944 22.6641 189.074 22.6641C192.953 22.6641 195.873 23.2402 197.832 24.3926L196.161 25.6602C194.816 25.0456 192.454 24.7383 189.074 24.7383C187.422 24.7383 186.308 24.9207 185.732 25.2856C185.175 25.6506 184.896 26.1595 184.896 26.8125C184.896 27.4655 185.05 27.9744 185.357 28.3394C185.665 28.7043 186.231 28.8867 187.057 28.8867H190.629C193.222 28.8867 195.556 29.3285 197.63 30.2119C199.723 31.0954 201.442 32.3053 202.787 33.8418C204.131 35.359 205.159 37.1164 205.869 39.1138C206.58 41.092 206.935 43.2142 206.935 45.4805C206.935 47.3242 206.676 49.0719 206.157 50.7236C205.639 52.3753 204.851 53.8926 203.795 55.2754C202.758 56.6582 201.5 57.8586 200.021 58.8765C198.561 59.8752 196.814 60.653 194.778 61.21C192.761 61.7861 190.572 62.0742 188.209 62.0742C184.503 62.0742 181.027 61.5076 177.781 60.3745C174.554 59.2606 171.865 57.6953 169.714 55.6787L171.385 54.4399C173.344 56.2069 175.793 57.5801 178.731 58.5596C181.689 59.5199 184.848 60 188.209 60C190.841 60 193.213 59.6255 195.325 58.8765C197.457 58.1082 199.205 57.0615 200.568 55.7363C201.951 54.4111 203.007 52.8747 203.737 51.127C204.486 49.3792 204.861 47.4971 204.861 45.4805C204.861 42.8109 204.323 40.4006 203.248 38.2495C202.172 36.0793 200.53 34.3219 198.321 32.9775C196.132 31.6331 193.539 30.9609 190.543 30.9609ZM187.057 33.0352H190.341C194.24 33.0352 197.284 34.2259 199.474 36.6074C201.682 38.9889 202.787 41.9466 202.787 45.4805C202.787 49.0719 201.509 52.0488 198.955 54.4111C196.401 56.7542 192.819 57.9258 188.209 57.9258C185.137 57.9258 182.265 57.5033 179.596 56.6582C176.926 55.8132 174.708 54.6224 172.941 53.0859L174.554 51.7896C176.129 53.0763 178.107 54.075 180.489 54.7856C182.889 55.4963 185.463 55.8516 188.209 55.8516C192.262 55.8516 195.354 54.8817 197.486 52.9419C199.637 51.0021 200.712 48.515 200.712 45.4805C200.712 42.4844 199.81 40.0068 198.004 38.0479C196.218 36.0889 193.654 35.1094 190.312 35.1094H187.057C184.253 35.1094 182.15 34.3411 180.748 32.8047C179.346 31.2682 178.645 29.2708 178.645 26.8125C178.645 24.3542 179.509 22.3568 181.238 20.8203C182.986 19.2839 185.597 18.5156 189.074 18.5156C191.513 18.5156 193.779 18.8037 195.873 19.3799C197.966 19.9368 199.694 20.7435 201.058 21.7998L199.416 23.0674C197.015 21.4157 193.568 20.5898 189.074 20.5898C186.174 20.5898 184.051 21.166 182.707 22.3184C181.382 23.4515 180.719 24.9495 180.719 26.8125C180.719 28.6947 181.209 30.2023 182.188 31.3354C183.187 32.4686 184.81 33.0352 187.057 33.0352ZM187.057 37.1836H190.226C193.03 37.1836 195.133 37.9614 196.535 39.5171C197.937 41.0728 198.638 43.0605 198.638 45.4805C198.638 47.9388 197.764 49.9362 196.017 51.4727C194.288 53.0091 191.686 53.7773 188.209 53.7773C185.77 53.7773 183.494 53.4989 181.382 52.9419C179.288 52.3657 177.56 51.5495 176.196 50.4932L177.838 49.2256C180.239 50.8773 183.696 51.7031 188.209 51.7031C191.11 51.7031 193.222 51.1366 194.547 50.0034C195.892 48.8511 196.564 47.3434 196.564 45.4805C196.564 43.6175 196.065 42.1195 195.066 40.9863C194.067 39.834 192.444 39.2578 190.197 39.2578H187.057C183.12 39.2578 180.037 38.0863 177.81 35.7432C175.601 33.3809 174.497 30.404 174.497 26.8125C174.497 23.221 175.774 20.2537 178.328 17.9106C180.882 15.5483 184.464 14.3672 189.074 14.3672C192.147 14.3672 195.008 14.7897 197.659 15.6348C200.328 16.4798 202.547 17.6706 204.313 19.207L202.7 20.5034C201.125 19.2166 199.147 18.2179 196.766 17.5073C194.384 16.7967 191.82 16.4414 189.074 16.4414C185.021 16.4414 181.92 17.4113 179.769 19.3511C177.637 21.2909 176.571 23.778 176.571 26.8125C176.571 29.8278 177.473 32.3149 179.279 34.2739C181.084 36.2137 183.677 37.1836 187.057 37.1836ZM187.057 41.332H190.226C191.705 41.332 192.771 41.7161 193.424 42.4844C194.077 43.2526 194.403 44.2513 194.403 45.4805C194.403 48.2461 192.339 49.6289 188.209 49.6289C184.311 49.6289 181.382 49.0527 179.423 47.9004L181.094 46.6328C182.438 47.2474 184.81 47.5547 188.209 47.5547C189.861 47.5547 190.965 47.3722 191.522 47.0073C192.099 46.6424 192.387 46.1335 192.387 45.4805C192.387 44.8467 192.223 44.3473 191.897 43.9824C191.59 43.5983 191.014 43.4062 190.168 43.4062H187.057C184.407 43.4062 182.006 42.9741 179.855 42.1099C177.723 41.2456 175.966 40.0549 174.583 38.5376C173.219 37.0203 172.173 35.263 171.443 33.2656C170.713 31.2682 170.348 29.1172 170.348 26.8125C170.348 24.9688 170.607 23.221 171.126 21.5693C171.645 19.9176 172.422 18.4004 173.459 17.0176C174.516 15.6348 175.774 14.444 177.233 13.4453C178.712 12.4274 180.46 11.64 182.477 11.083C184.512 10.5068 186.711 10.2188 189.074 10.2188C192.78 10.2188 196.247 10.7853 199.474 11.9185C202.7 13.0324 205.389 14.5977 207.54 16.6143L205.869 17.853C203.91 16.0861 201.461 14.7225 198.523 13.7622C195.584 12.7827 192.435 12.293 189.074 12.293C186.443 12.293 184.061 12.6771 181.929 13.4453C179.817 14.1943 178.069 15.2314 176.686 16.5566C175.322 17.8818 174.266 19.4183 173.517 21.166C172.787 22.9137 172.422 24.7959 172.422 26.8125C172.422 29.5205 172.97 31.9596 174.064 34.1299C175.159 36.3001 176.83 38.0479 179.077 39.373C181.324 40.679 183.984 41.332 187.057 41.332ZM210.623 14.3672V12.293H241.736V14.3672H210.623ZM210.623 18.5156V16.4414H241.736V18.5156H210.623ZM210.623 22.6641V20.5898H241.736V22.6641H233.439V60H231.365V22.6641H229.291V60H227.216V22.6641H225.142V60H223.068V22.6641H220.994V60H218.919V22.6641H210.623Z" fill="#F1F8E9"/>
</g>
<defs>
<clipPath id="clip0_21_23">
<rect width="250" height="72" fill="white"/>
</clipPath>
</defs>
</svg>
