<svg width="281" height="60" viewBox="0 0 281 60" fill="none" xmlns="http://www.w3.org/2000/svg">
<g clip-path="url(#clip0_21_23)">
<ellipse cx="29.6573" cy="29.6861" rx="29.6573" ry="29.6573" fill="#009688"/>
<ellipse cx="29.6573" cy="29.6861" rx="12.4369" ry="12.4369" fill="#F1F8E9"/>
<ellipse cx="29.6573" cy="29.6861" rx="3.82675" ry="3.82674" fill="#424242"/>
<path fill-rule="evenodd" clip-rule="evenodd" d="M14.7989 49.4461C10.5922 46.2872 7.70204 42.0255 6.22872 37.3648L5.20202 37.4309C6.71227 42.3756 9.74754 46.9035 14.1984 50.2457C18.6232 53.5683 23.7831 55.2205 28.9226 55.3098L28.6996 54.3045C23.8432 54.172 18.9794 52.5852 14.7989 49.4461ZM52.8655 23.8142L53.8817 23.7488C52.5065 18.3657 49.3565 13.3975 44.568 9.80174C40.1171 6.45954 34.9223 4.80751 29.7526 4.73622L29.9754 5.74061C34.8621 5.85565 39.7608 7.44253 43.9675 10.6014C48.5125 14.0142 51.5206 18.7144 52.8655 23.8142Z" fill="#F1F8E9"/>
<path fill-rule="evenodd" clip-rule="evenodd" d="M16.9362 46.5259C13.3391 43.8248 10.8648 40.1832 9.5984 36.1997L8.57151 36.2658C9.87491 40.5333 12.4945 44.4411 16.3358 47.3255C20.1545 50.193 24.6077 51.619 29.0434 51.6961L28.8203 50.6906C24.6679 50.5704 20.5108 49.21 16.9362 46.5259ZM49.5678 24.523L50.5841 24.4576C49.3973 19.8118 46.6787 15.524 42.546 12.4207C38.7046 9.53622 34.2212 8.11045 29.7595 8.04894L29.9824 9.05353C34.1611 9.15866 38.3483 10.5192 41.9455 13.2204C45.8346 16.1407 48.4113 20.1604 49.5678 24.523Z" fill="#F1F8E9"/>
<path fill-rule="evenodd" clip-rule="evenodd" d="M19.1373 43.8358C16.1285 41.5765 14.0555 38.5333 12.9889 35.2035L11.9617 35.2696C13.0655 38.8835 15.2839 42.1928 18.5368 44.6354C21.7706 47.0637 25.5417 48.2712 29.2979 48.3365L29.0748 47.3308C25.6019 47.2225 22.1268 46.0806 19.1373 43.8358ZM46.523 25.3354L47.5395 25.27C46.5344 21.3358 44.2322 17.7047 40.7325 15.0768C37.4795 12.6341 33.6829 11.4267 29.9046 11.3746L30.1275 12.3795C33.6227 12.475 37.1232 13.6171 40.132 15.8764C43.3882 18.3215 45.5484 21.6845 46.523 25.3354Z" fill="#F1F8E9"/>
<path fill-rule="evenodd" clip-rule="evenodd" d="M21.4273 41.4681C18.9771 39.6283 17.2852 37.1534 16.4084 34.4441L15.3808 34.5103C16.2951 37.5035 18.1325 40.2446 20.8268 42.2678C23.5054 44.2791 26.6289 45.2792 29.7402 45.3333L29.517 44.3272C26.6891 44.2304 23.8616 43.296 21.4273 41.4681ZM43.8324 26.2933L44.8491 26.2278C44.0167 22.9692 42.1098 19.9617 39.2111 17.785C36.5167 15.7618 33.372 14.7617 30.2426 14.7185L30.4656 15.7238C33.3119 15.8102 36.1604 16.7448 38.6106 18.5846C41.2657 20.5784 43.0305 23.3179 43.8324 26.2933Z" fill="#F1F8E9"/>
<rect x="60.4945" y="21.3739" width="1.99989" height="19.9989" transform="rotate(46.5734 60.4945 21.3739)" fill="#F1F8E9"/>
<rect x="44.7263" y="35" width="3.82674" height="3.82674" transform="rotate(45.4329 44.7263 35)" fill="#F1F8E9"/>
<path d="M47.7056 40.7056L45.5171 40.8303L47.8948 38.5218L47.7056 40.7056Z" fill="#F1F8E9"/>
<path d="M255.878 44.8777C252.481 44.8777 249.561 44.1942 247.117 42.8273C244.674 41.4245 242.804 39.554 241.506 37.2158C240.208 34.8777 239.559 32.3058 239.559 29.5C239.559 26.6583 240.208 24.0863 241.506 21.7842C242.804 19.446 244.674 17.5935 247.117 16.2266C249.561 14.8237 252.481 14.1223 255.878 14.1223C258.36 14.1223 260.593 14.518 262.578 15.3094C264.563 16.0648 266.243 17.1259 267.617 18.4928L266.415 19.6259C265.155 18.4389 263.647 17.5036 261.891 16.8201C260.135 16.1367 258.131 15.795 255.878 15.795C252.824 15.795 250.19 16.4245 247.976 17.6835C245.8 18.9065 244.14 20.5612 242.994 22.6475C241.849 24.6978 241.277 26.982 241.277 29.5C241.277 32.018 241.849 34.3201 242.994 36.4065C244.14 38.4568 245.8 40.1115 247.976 41.3705C250.19 42.5935 252.824 43.205 255.878 43.205C258.131 43.205 260.135 42.8633 261.891 42.1799C263.647 41.4964 265.155 40.5612 266.415 39.3741L267.617 40.5072C266.243 41.8381 264.563 42.8993 262.578 43.6906C260.593 44.482 258.36 44.8777 255.878 44.8777ZM255.878 48.4388C252.824 48.4388 250.057 47.9532 247.575 46.982C245.132 45.9748 243.013 44.6079 241.219 42.8813C239.463 41.1547 238.108 39.1583 237.154 36.8921C236.237 34.5899 235.779 32.1259 235.779 29.5C235.779 26.8741 236.237 24.4281 237.154 22.1619C238.108 19.8597 239.463 17.8453 241.219 16.1187C243.013 14.3561 245.132 12.9892 247.575 12.018C250.057 11.0468 252.824 10.5612 255.878 10.5612C258.894 10.5612 261.605 11.0468 264.01 12.018C266.453 12.9532 268.553 14.2662 270.309 15.9568L269.049 17.1439C267.484 15.5971 265.575 14.3921 263.323 13.5288C261.108 12.6655 258.627 12.2338 255.878 12.2338C252.137 12.2338 248.873 13.0072 246.087 14.554C243.338 16.1007 241.219 18.1871 239.73 20.813C238.242 23.4029 237.497 26.2986 237.497 29.5C237.497 32.6655 238.242 35.5612 239.73 38.1871C241.219 40.813 243.338 42.8993 246.087 44.446C248.873 45.9928 252.137 46.7662 255.878 46.7662C258.627 46.7662 261.108 46.3345 263.323 45.4712C265.575 44.6079 267.484 43.4029 269.049 41.8561L270.309 43.0432C268.553 44.6978 266.453 46.0108 264.01 46.982C261.605 47.9532 258.894 48.4388 255.878 48.4388ZM255.878 52C252.29 52 249.026 51.4245 246.087 50.2734C243.185 49.0863 240.685 47.4676 238.585 45.4173C236.486 43.3669 234.863 40.9928 233.718 38.295C232.573 35.5612 232 32.6295 232 29.5C232 26.3705 232.573 23.4568 233.718 20.759C234.863 18.0252 236.486 15.6331 238.585 13.5827C240.685 11.5324 243.185 9.93166 246.087 8.78058C249.026 7.59353 252.29 7 255.878 7C259.391 7 262.597 7.57554 265.499 8.72662C268.4 9.84173 270.9 11.4065 273 13.4209L271.797 14.554C269.851 12.7194 267.522 11.2806 264.811 10.2374C262.139 9.15827 259.162 8.61871 255.878 8.61871C252.519 8.61871 249.484 9.15827 246.774 10.2374C244.063 11.3165 241.735 12.8094 239.788 14.7158C237.841 16.6223 236.333 18.8525 235.264 21.4065C234.233 23.9245 233.718 26.6223 233.718 29.5C233.718 32.3777 234.233 35.0935 235.264 37.6475C236.333 40.1655 237.841 42.3777 239.788 44.2842C241.735 46.1906 244.063 47.6835 246.774 48.7626C249.484 49.8417 252.519 50.3813 255.878 50.3813C259.162 50.3813 262.139 49.8597 264.811 48.8165C267.522 47.7374 269.851 46.2806 271.797 44.446L273 45.5791C270.9 47.5576 268.4 49.1223 265.499 50.2734C262.597 51.4245 259.391 52 255.878 52Z" fill="#F1F8E9"/>
<path d="M222.109 53V7.172H223.819V53H222.109ZM214.585 53V7.172H216.295V53H214.585ZM218.347 53V7.172H220.057V53H218.347Z" fill="#F1F8E9"/>
<path d="M189.267 45.7194C186.506 45.7194 184.231 45.223 182.442 44.2302C180.653 43.2006 179.681 41.8401 179.525 40.1487L181.217 39.7074C181.217 40.9576 181.956 42.0056 183.433 42.8513C184.95 43.6603 186.894 44.0647 189.267 44.0647C191.717 44.0647 193.7 43.6419 195.217 42.7962C196.772 41.9504 197.55 40.8657 197.55 39.542C197.55 38.2918 196.908 37.2806 195.625 36.5084C194.342 35.7362 192.592 35.056 190.375 34.4676L186.758 33.4748C181.936 32.1511 178.3 30.478 175.85 28.4556C173.4 26.4333 172.175 23.6571 172.175 20.1271C172.175 17.5899 172.914 15.3469 174.392 13.3981C175.908 11.4125 177.95 9.84972 180.517 8.70983C183.122 7.56994 186.058 7 189.325 7C192.281 7 194.944 7.45963 197.317 8.3789C199.728 9.26139 201.711 10.53 203.267 12.1847C204.861 13.8393 205.872 15.7698 206.3 17.976L204.608 18.4173C204.258 16.4684 203.383 14.7586 201.983 13.2878C200.583 11.8169 198.794 10.6771 196.617 9.86811C194.439 9.05916 192.008 8.65468 189.325 8.65468C186.369 8.65468 183.725 9.16947 181.392 10.199C179.097 11.1918 177.269 12.5524 175.908 14.2806C174.586 16.0088 173.925 17.9944 173.925 20.2374C173.925 23.2526 175.033 25.6795 177.25 27.518C179.506 29.3197 182.831 30.7906 187.225 31.9305L190.842 32.8681C193.525 33.5667 195.606 34.4125 197.083 35.4053C198.561 36.3981 199.3 37.7402 199.3 39.4317C199.3 41.307 198.386 42.8329 196.558 44.0096C194.731 45.1495 192.3 45.7194 189.267 45.7194ZM189.267 49.3597C185.611 49.3597 182.539 48.6059 180.05 47.0983C177.6 45.554 176.161 43.55 175.733 41.0863L177.483 40.6451C177.794 42.7778 179 44.4876 181.1 45.7746C183.239 47.0616 185.961 47.705 189.267 47.705C191.678 47.705 193.797 47.3557 195.625 46.6571C197.453 45.9584 198.872 44.984 199.883 43.7338C200.894 42.4836 201.4 41.0496 201.4 39.4317C201.4 37.1886 200.506 35.4237 198.717 34.1367C196.928 32.813 194.458 31.7466 191.308 30.9377L187.75 30C183.978 29.0072 181.081 27.757 179.058 26.2494C177.036 24.7418 176.025 22.7378 176.025 20.2374C176.025 18.3621 176.589 16.7074 177.717 15.2734C178.883 13.8393 180.478 12.7178 182.5 11.9089C184.522 11.0632 186.797 10.6403 189.325 10.6403C191.697 10.6403 193.817 10.9896 195.683 11.6883C197.589 12.3501 199.144 13.3062 200.35 14.5564C201.556 15.8066 202.294 17.259 202.567 18.9137L200.817 19.3549C200.544 17.2222 199.339 15.5124 197.2 14.2254C195.1 12.9385 192.475 12.295 189.325 12.295C187.108 12.295 185.125 12.6443 183.375 13.3429C181.625 14.0048 180.244 14.9424 179.233 16.1559C178.261 17.3325 177.775 18.693 177.775 20.2374C177.775 22.3333 178.65 23.988 180.4 25.2014C182.189 26.4149 184.775 27.4812 188.158 28.4005L191.658 29.3381C195.275 30.2942 198.094 31.5628 200.117 33.1439C202.139 34.6883 203.15 36.7842 203.15 39.4317C203.15 41.3805 202.567 43.1087 201.4 44.6163C200.233 46.0871 198.6 47.2454 196.5 48.0911C194.439 48.9369 192.028 49.3597 189.267 49.3597ZM189.267 53C186.233 53 183.492 52.5588 181.042 51.6763C178.631 50.757 176.628 49.4884 175.033 47.8705C173.478 46.2158 172.467 44.267 172 42.024L173.692 41.5827C174.081 43.5683 174.956 45.2966 176.317 46.7674C177.717 48.2014 179.525 49.3229 181.742 50.1319C183.958 50.9408 186.467 51.3453 189.267 51.3453C192.456 51.3453 195.236 50.8489 197.608 49.8561C200.019 48.8265 201.886 47.4293 203.208 45.6643C204.569 43.8625 205.25 41.785 205.25 39.4317C205.25 36.3062 204.103 33.8058 201.808 31.9305C199.514 30.0552 196.286 28.5476 192.125 27.4077L188.683 26.47C185.844 25.6978 183.667 24.8521 182.15 23.9329C180.633 23.0136 179.875 21.7818 179.875 20.2374C179.875 18.4357 180.769 17.0016 182.558 15.9353C184.347 14.8321 186.603 14.2806 189.325 14.2806C191.969 14.2806 194.147 14.7954 195.858 15.8249C197.569 16.8545 198.542 18.1966 198.775 19.8513L197.083 20.2926C197.006 19.0056 196.247 17.9576 194.808 17.1487C193.408 16.3397 191.581 15.9353 189.325 15.9353C187.186 15.9353 185.358 16.3213 183.842 17.0935C182.364 17.8657 181.625 18.8769 181.625 20.1271C181.625 21.267 182.306 22.1863 183.667 22.8849C185.067 23.5835 186.894 24.2454 189.15 24.8705L192.475 25.8082C197.181 27.1319 200.778 28.8601 203.267 30.9928C205.756 33.0887 207 35.9384 207 39.542C207 42.1527 206.242 44.4876 204.725 46.5468C203.247 48.5691 201.167 50.1503 198.483 51.2902C195.839 52.4301 192.767 53 189.267 53Z" fill="#F1F8E9"/>
<path d="M147 44.7473C144.854 44.7473 143.065 44.326 141.635 43.4835C140.241 42.641 139.187 41.5238 138.472 40.1319C137.794 38.7033 137.455 37.1282 137.455 35.4066V7H139.15V35.4066C139.15 37.5311 139.771 39.3443 141.013 40.8462C142.256 42.348 144.251 43.0989 147 43.0989C149.749 43.0989 151.744 42.348 152.987 40.8462C154.229 39.3443 154.85 37.5311 154.85 35.4066V7H156.545V35.4066C156.545 37.1282 156.187 38.7033 155.472 40.1319C154.794 41.5238 153.74 42.641 152.309 43.4835C150.916 44.326 149.146 44.7473 147 44.7473ZM147 52C143.498 52 140.467 51.2674 137.907 49.8022C135.384 48.3004 133.426 46.2857 132.033 43.7582C130.678 41.2308 130 38.4469 130 35.4066V7H131.694V35.4066C131.694 38.1538 132.297 40.663 133.502 42.9341C134.744 45.2051 136.495 47.0183 138.754 48.3736C141.051 49.6923 143.8 50.3516 147 50.3516C150.2 50.3516 152.93 49.6923 155.189 48.3736C157.486 47.0183 159.237 45.2051 160.442 42.9341C161.684 40.663 162.306 38.1538 162.306 35.4066V7H164V35.4066C164 38.4469 163.303 41.2308 161.91 43.7582C160.555 46.2857 158.616 48.3004 156.093 49.8022C153.57 51.2674 150.539 52 147 52ZM147 48.3736C144.176 48.3736 141.766 47.7875 139.771 46.6154C137.813 45.4432 136.307 43.8864 135.252 41.9451C134.236 39.967 133.728 37.7875 133.728 35.4066V7H135.422V35.4066C135.422 37.4945 135.855 39.3993 136.721 41.1209C137.625 42.8059 138.942 44.1612 140.674 45.1868C142.406 46.2125 144.515 46.7253 147 46.7253C149.523 46.7253 151.631 46.2125 153.326 45.1868C155.058 44.1612 156.357 42.8059 157.223 41.1209C158.126 39.3993 158.578 37.4945 158.578 35.4066V7H160.272V35.4066C160.272 37.7875 159.745 39.967 158.691 41.9451C157.674 43.8864 156.168 45.4432 154.173 46.6154C152.215 47.7875 149.824 48.3736 147 48.3736Z" fill="#F1F8E9"/>
<path d="M81.9951 53V7H83.8121V53H81.9951ZM74 53V7H75.8171V53H74ZM77.9975 53V7H79.8146V53H77.9975ZM121.183 53V7H123V53H121.183ZM113.188 53V7H115.005V53H113.188ZM117.185 53V7H119.002V53H117.185ZM100.771 26.4527L99.6811 24.908L111.007 9.40298V12.4353L100.771 26.4527ZM103.194 36.3507L85.9926 13.1219V10.204L104.345 34.8632L103.194 36.3507ZM103.255 29.7711L102.164 28.2264L111.007 16.3259V19.301L103.255 29.7711ZM100.771 39.7264L85.9926 19.8159V16.7836L101.862 38.1816L100.771 39.7264ZM105.677 33.0323L104.587 31.5448L111.007 22.9055V25.8806L105.677 33.0323ZM98.3486 42.9876L85.9926 26.3955V23.3632L99.4388 41.5L98.3486 42.9876Z" fill="#F1F8E9"/>
</g>
<defs>
<clipPath id="clip0_21_23">
<rect width="281" height="60" fill="white"/>
</clipPath>
</defs>
</svg>
